<?xml version="1.0" encoding="UTF-8"?>
<svg width="128px" height="128px" viewBox="0 0 128 128" version="1.1" xmlns="http://www.w3.org/2000/svg" xmlns:xlink="http://www.w3.org/1999/xlink">
    <!-- Generator: Sketch 56.3 (81716) - https://sketch.com -->
    <title>Page-1</title>
    <desc>Created with Sketch.</desc>
    <g id="Page-1" stroke="none" stroke-width="1" fill="none" fill-rule="evenodd">
        <g id="logo" fill="#2D3E50" fill-rule="nonzero">
            <path d="M91.0922545,75.7843889 C92.1652524,75.7562505 92.1652524,75.7562505 91.0922545,75.7843889 L91.0922545,75.7843889 Z M90.1017952,75.7956443 C90.4225691,75.7956443 90.7433428,75.7918926 91.0641167,75.7843889 C90.7433428,75.7918926 90.4225691,75.7956443 90.1017952,75.7956443 L90.1017952,75.7956443 Z M90.1017952,10.1129642 C74.7571773,10.1129642 62.3145305,22.5539174 62.3145305,37.8987601 L58.943592,37.8987601 C58.943592,20.6930269 72.8963142,6.74197614 90.1017952,6.74197614 C107.3054,6.74197614 121.256247,20.6930269 121.256247,37.8987601 L117.88906,37.8987601 C117.88906,22.5539174 105.442661,10.1129642 90.1017952,10.1129642 L90.1017952,10.1129642 Z M90.1017952,16.8530644 C78.4789036,16.8530644 69.056408,26.2775742 69.056408,37.8987601 L65.6835934,37.8987601 C65.6835934,24.4166837 76.6217922,13.4820764 90.1017952,13.4820764 C103.581798,13.4820764 114.516245,24.4166837 114.516245,37.8987601 L111.149058,37.8987601 C111.147182,26.2775742 101.724687,16.8549403 90.1017952,16.8549403 L90.1017952,16.8530644 L90.1017952,16.8530644 Z M75.7945335,37.8987601 C75.7945335,29.9993551 82.2006299,23.5931647 90.1017952,23.5931647 L90.1017952,23.5950406 C98.0010843,23.5950406 104.403429,29.9993551 104.403429,37.8987601 L107.776244,37.8987601 C107.776244,28.1384647 99.8600716,20.2240525 90.1017952,20.2240525 C80.3435188,20.2240525 72.4235947,28.1384647 72.4235947,37.8987601 L75.7945335,37.8987601 L75.7945335,37.8987601 Z M37.8982048,52.2024796 C37.575555,52.2024796 37.2547811,52.2062316 36.9340075,52.213735 L37.8982048,52.2024796 L37.8982048,52.2024796 Z M54.5277937,24.8049946 C54.8429398,23.9420816 54.8429398,23.9420816 54.5277937,24.8049946 L54.5277937,24.8049946 Z M52.2167216,36.9045343 C52.2429838,35.8333968 52.2429838,35.8333968 52.2167216,36.9045343 L52.2167216,36.9045343 Z M52.2035904,37.8987601 C52.2035904,29.9993551 45.7974939,23.5931647 37.8982048,23.5931647 C29.9989154,23.5931647 23.5946948,29.9993551 23.5946948,37.8987601 L20.2237561,37.8987601 C20.2237561,28.1384647 28.1380523,20.2240525 37.8982048,20.2240525 C44.4543709,20.2240525 50.1814025,23.7957616 53.2296914,29.1026761 L53.2278156,29.121435 C53.5635963,27.6957528 53.9837913,26.2963332 54.4790209,24.9381833 C50.624108,20.0177038 44.6307028,16.8530644 37.8982048,16.8530644 C26.279065,16.8530644 16.8546933,26.2775742 16.8509416,37.8987601 L13.4818788,37.8987601 C13.4818788,24.4166837 24.4182018,13.4820764 37.8982048,13.4820764 C45.0490216,13.4820764 51.4813806,16.5585485 55.9459514,21.4583932 C56.4618157,20.3891315 57.0283286,19.3480083 57.6379864,18.3368995 L57.6323588,18.3425272 C52.599399,13.2607205 45.6136586,10.1129642 37.8982048,10.1129642 C22.5554627,10.1129642 10.112816,22.5539174 10.112816,37.8987601 L6.74187733,37.8987601 C6.74187733,20.6930269 20.6927237,6.74197614 37.8982048,6.74197614 C46.303979,6.74197614 53.9368944,10.0754462 59.5401186,15.4874109 C60.2098042,14.5794765 60.9170075,13.6996805 61.6617278,12.8536507 C55.4713564,6.97833923 47.1049754,3.37098806 37.8982048,3.37098806 C18.8318604,3.37098806 3.37281455,18.8321364 3.37093866,37.8987601 L0,37.8987601 C0,16.971246 16.9709973,0 37.8982048,0 C47.9697514,0 57.2084121,4.01629684 63.9971862,10.428115 C70.7934637,3.96564763 79.9852275,0.00187589764 90.1017952,0.00187589764 C111.029003,0.00187589764 127.998124,16.971246 127.998124,37.8987601 L124.629061,37.8987601 C124.629061,18.8340124 109.168139,3.37098806 90.1017952,3.37098806 C71.035451,3.37098806 55.5707774,18.8321364 55.5707774,37.8987601 L52.2035904,37.8987601 C52.2035904,37.5761058 52.2054662,37.2534513 52.2129699,36.9345488 C52.2054662,37.2534513 52.2035904,37.5761058 52.2035904,37.8987601 L52.2035904,37.8987601 Z M90.0811605,52.2043554 C89.1769913,52.2043554 89.1769913,52.2043554 90.0811605,52.2043554 L90.0811605,52.2043554 Z M38.7573533,75.7862647 L38.860526,75.7843889 L38.8755331,75.7843889 L38.8886641,75.782513 C39.8772478,75.7581264 39.4139077,75.7731335 38.7573533,75.7862647 L38.7573533,75.7862647 Z M37.9150875,75.7956443 C38.1852128,75.7956443 38.457214,75.7918926 38.7254635,75.7862647 C38.457214,75.7918926 38.1852128,75.7956443 37.9150875,75.7956443 L37.9150875,75.7956443 Z M52.2035904,90.0937362 C52.1979628,82.198083 45.7937422,75.7956443 37.8982048,75.7956443 C29.9989154,75.7956443 23.5946948,82.1999588 23.5946948,90.0993638 L20.2237561,90.0993638 C20.2237561,80.3409443 28.1380523,72.4265322 37.8982048,72.4246564 C56.964549,72.4246564 72.4235947,56.9635078 72.4235947,37.8987601 L75.7945335,37.8987601 C75.7945335,45.7906616 82.1931265,52.1931003 90.0811605,52.2043554 L90.1017952,52.2043554 C98.0010843,52.2043554 104.403429,45.798165 104.403429,37.8987601 L107.776244,37.8987601 C107.776244,47.6590554 99.8600716,55.5753436 90.1017952,55.5753436 C71.035451,55.5753436 55.576405,71.034616 55.5707774,90.1012396 L52.2035904,90.1012396 C52.2035904,89.7748337 52.2054662,89.4484275 52.2167216,89.1238971 C52.2054662,89.4465516 52.2035904,89.76733 52.2035904,90.0937362 L52.2035904,90.0937362 Z M90.1017952,62.3135678 C74.7571773,62.3135678 62.3145305,74.7563972 62.3145305,90.1012396 L58.943592,90.1012396 C58.943592,72.8955064 72.8963142,58.9444557 90.1017952,58.9444557 L90.1017952,58.9425799 C101.724687,58.9425799 111.147182,49.5199461 111.149058,37.8987601 L114.516245,37.8987601 C114.516245,51.3827124 103.581798,62.3135678 90.1017952,62.3135678 L90.1017952,62.3135678 Z M90.1017952,69.055544 C78.4789036,69.055544 69.056408,78.4800539 69.056408,90.1012396 L65.6835934,90.1012396 C65.6835934,76.6191634 76.6217922,65.684556 90.1017952,65.684556 C105.442661,65.684556 117.88906,53.241727 117.88906,37.8987601 L121.256247,37.8987601 C121.256247,55.1044933 107.3054,69.0536681 90.1017952,69.055544 L90.1017952,69.055544 Z M37.8982048,69.0536681 C26.279065,69.0536681 16.8546933,78.478178 16.8546933,90.0993638 L13.4837547,90.0993638 C13.4837547,76.6172876 24.4182018,65.684556 37.8982048,65.684556 C53.2409465,65.684556 65.6835934,53.241727 65.6835934,37.8987601 L69.056408,37.8987601 C69.0526563,55.1026174 55.1036858,69.0536681 37.8982048,69.0536681 L37.8982048,69.0536681 Z M37.8982048,62.3135678 C22.5573386,62.3135678 10.112816,74.7563972 10.112816,90.0993638 L6.74187733,90.0993638 C6.74375321,72.8955064 20.6927237,58.9425799 37.8982048,58.9425799 C49.5192202,58.9425799 58.943592,49.5199461 58.943592,37.8987601 L62.3145305,37.8987601 C62.3145305,51.3808366 51.3800834,62.3135678 37.8982048,62.3135678 L37.8982048,62.3135678 Z M23.5946948,90.1012396 C23.5946948,97.9987687 29.9989154,104.404959 37.8982048,104.404959 C45.7974939,104.404959 52.2035904,97.9987687 52.2035904,90.1012396 L55.5745291,90.1012396 C55.5707774,99.8596594 47.6583571,107.774071 37.8982048,107.774071 L37.8982048,107.775947 C28.1380523,107.775947 20.2237561,99.8596594 20.2237561,90.1012396 L23.5946948,90.1012396 L23.5946948,90.1012396 Z M37.8982048,111.146936 C49.5192202,111.146936 58.943592,101.72055 58.943592,90.1012396 L62.3145305,90.1012396 C62.3145305,103.583316 51.3800834,114.514172 37.8982048,114.514172 L37.8982048,114.516048 C24.4182018,114.516048 13.4837547,103.583316 13.4837547,90.1012396 L16.8546933,90.1012396 C16.8546933,101.724302 26.279065,111.146936 37.8982048,111.146936 L37.8982048,111.146936 Z M37.8982048,117.887036 C53.2428227,117.887036 65.6835934,105.442331 65.6835934,90.1012396 L69.056408,90.1012396 C69.056408,107.306973 55.1036858,121.256148 37.8982048,121.256148 C20.6964754,121.256148 6.74375321,107.306973 6.74187733,90.1012396 L10.112816,90.1012396 C10.112816,105.446082 22.5573386,117.887036 37.8982048,117.887036 L37.8982048,117.887036 Z M36.9340075,52.213735 C37.2547811,52.2062316 37.575555,52.2024796 37.8982048,52.2024796 L36.9340075,52.213735 L36.9340075,52.213735 Z M36.9077452,52.213735 C35.8328717,52.2437495 35.8328717,52.2437495 36.9077452,52.213735 L36.9077452,52.213735 Z M72.0484208,54.3353753 L72.0484208,54.339127 L72.0484208,54.3410029 C72.566161,54.9000204 73.0989082,55.436527 73.6597933,55.9486474 L73.704814,55.9242607 C72.624313,56.4457603 71.5700738,57.0160329 70.5496006,57.6313274 L70.3676412,57.4399858 C70.9754231,56.4345048 71.5363082,55.3990091 72.0484208,54.3353753 L72.0484208,54.3353753 Z M73.5191029,50.859337 L73.5191029,50.8574611 C74.008705,49.5030629 74.4289,48.1148987 74.7684324,46.6948442 C76.3291566,49.4092679 78.5895801,51.6716007 81.3020883,53.2304716 C79.7094746,53.6094028 78.15813,54.0877566 76.6518061,54.6617815 C76.8131311,54.5998769 76.9782076,54.5398482 77.1395323,54.4798195 C75.7889059,53.4236891 74.5752179,52.2062316 73.5191029,50.8574611 L73.5191029,50.859337 L73.5191029,50.859337 Z M50.8567157,73.5201805 L50.8792262,73.5370635 C52.1566938,74.538793 53.3141057,75.6830905 54.3251996,76.9493214 L54.3308272,76.9511972 L54.4790209,77.1481664 C53.9856672,78.498813 53.5692239,79.8851013 53.2296914,81.3032797 C51.6708434,78.5888559 49.4085441,76.3283993 46.6922839,74.7676523 C48.1141935,74.4299909 49.5060893,74.0135414 50.8567157,73.5201805 L50.8567157,73.5201805 Z M54.3570894,72.0682356 L54.3383306,72.0494768 C55.4075768,71.5354806 56.4430571,70.9727114 57.4522752,70.3630448 L57.4522752,70.3649206 L57.6042207,70.5149923 L57.6379864,70.5487585 C57.0283286,71.5561156 56.4655674,72.595363 55.9515789,73.6608727 L55.8990548,73.6064718 L55.8765442,73.5802093 L55.8652891,73.5689539 C55.3831904,73.0493302 54.8804571,72.5484656 54.3570894,72.0682356 L54.3570894,72.0682356 Z M75.7964093,90.1218746 C75.8057886,98.0100241 82.2100095,104.404959 90.1017952,104.404959 C98.0010843,104.404959 104.403429,97.9987687 104.409057,90.1012396 L107.776244,90.1012396 C107.776244,99.8596594 99.8600716,107.775947 90.1017952,107.775947 C83.5456291,107.775947 77.8298526,104.209866 74.7721844,98.9085791 L74.7684324,98.8973237 L74.7684324,98.893572 C74.4270241,100.315502 74.008705,101.705542 73.5172271,103.056189 L73.5191029,103.063692 C77.3721403,107.982296 83.3692972,111.146936 90.1017952,111.146936 C101.724687,111.146936 111.149058,101.724302 111.149058,90.1012396 L114.516245,90.1012396 C114.516245,103.585192 103.58555,114.516048 90.1017952,114.516048 C82.952854,114.516048 76.5186194,111.441451 72.0484208,106.541607 L72.0484208,106.537855 C71.5325565,107.603365 70.9697956,108.644488 70.3601378,109.651845 L70.3620136,109.655597 C75.4006007,114.739279 82.3863414,117.888911 90.1017952,117.888911 L90.1017952,117.887036 C105.442661,117.887036 117.88906,105.446082 117.88906,90.1012396 L121.256247,90.1012396 C121.256247,107.306973 107.309152,121.256148 90.1017952,121.256148 L90.1017952,121.2599 C81.7222833,121.2599 74.111878,117.945188 68.5124056,112.559486 L68.5086539,112.563238 L68.4523777,112.508837 C67.7845679,113.416771 67.0754891,114.296568 66.3326444,115.142597 L66.3964239,115.202626 C72.5811681,121.046047 80.9250385,124.629012 90.1017952,124.629012 C109.168139,124.629012 124.629061,109.165987 124.629061,90.1012396 L128,90.1012396 C127.998124,111.026878 111.029003,128 90.1017952,128 C80.0227449,128 70.8572433,124.060615 64.070345,117.641293 L64.0347036,117.607527 L64.0009379,117.573761 L63.9953104,117.568133 C57.1971567,124.032476 48.0128966,127.998124 37.8982048,127.998124 L37.8982048,128 C16.9785008,128 0.0131310911,111.040009 0,90.1218746 L0,90.1012396 C0.00750348061,79.9920272 3.97309299,70.8038806 10.429838,64.0056277 L10.4260863,63.9999999 L10.4073276,63.981241 C3.95996188,57.1867398 0,48.0060966 0,37.8987601 L3.37093866,37.8987601 C3.37281455,47.1019141 6.9763611,55.4646657 12.8478347,61.6570036 L12.8534623,61.6626315 L12.8590899,61.6663832 C13.7051073,60.9216519 14.5830146,60.2144386 15.4928116,59.5447431 L15.4909357,59.5409911 L15.4515424,59.5034732 L15.3108522,59.3571532 L15.3108522,59.3552774 C10.0040155,53.7669783 6.74187733,46.2127384 6.74187733,37.8987601 L10.112816,37.8987601 C10.112816,45.6162029 13.262402,52.5982941 18.3441342,57.6350791 L18.3478859,57.6388311 C19.35898,57.0291644 20.3963362,56.4663949 21.4618304,55.9505232 L21.4562028,55.9448954 L21.4562028,55.9467712 L21.2179673,55.7235395 L21.2123397,55.7197878 C16.455133,51.2645308 13.4818788,44.9277487 13.4818788,37.8987601 L16.8509416,37.8987601 C16.8546933,44.627605 20.0155345,50.6210979 24.9340661,54.4741916 L24.9453213,54.4798195 C26.3390928,53.9714512 27.7760094,53.5418707 29.2410639,53.1967054 L29.1022495,53.2304716 C23.7954129,50.1821379 20.2237561,44.4568983 20.2237561,37.8987601 L23.5946948,37.8987601 C23.5946948,45.798165 29.9989154,52.2024796 37.8982048,52.2024796 C45.7974939,52.2024796 52.2035904,45.798165 52.2035904,37.8987601 L55.5707774,37.8987601 C55.5707774,47.6571796 47.6583571,55.5715919 37.8982048,55.5734678 L37.8982048,55.5753436 L37.8907011,55.5753436 C18.8281087,55.5790953 3.37281455,71.038368 3.37281455,90.0993638 L3.13082728,90.1012396 L3.37281455,90.1012396 C3.37281455,109.165987 18.8318604,124.629012 37.8982048,124.629012 C56.964549,124.629012 72.4235947,109.165987 72.4235947,90.1012396 L72.4836226,90.1012396 L72.4235947,90.1012396 C72.4235947,80.3428201 80.3435188,72.4265322 90.1017952,72.4265322 C109.168139,72.4265322 124.629061,56.9635078 124.629061,37.8987601 L127.998124,37.8987601 C127.998124,48.0136003 124.036286,57.2036228 117.573914,63.9999999 C124.036286,70.7945011 128,79.9882755 128,90.1012396 L124.629061,90.1012396 C124.629061,80.8924584 121.021763,72.5278306 115.144662,66.3373685 C114.302396,67.0820998 113.418861,67.7893131 112.509064,68.4590086 C117.926577,74.0641909 121.256247,81.6953425 121.256247,90.1012396 L117.88906,90.1012396 C117.88906,82.3819209 114.74135,75.4017059 109.655866,70.3649206 L109.663369,70.3592931 C108.652275,70.9727114 107.611167,71.5354806 106.543797,72.0532285 C111.441694,76.5178651 114.516245,82.950318 114.516245,90.1012396 L111.149058,90.1012396 C111.149058,83.368643 107.982589,77.3732743 103.062182,73.5220564 L103.073437,73.5164285 C101.715307,74.0097897 100.31966,74.4299909 98.8939987,74.7676523 L98.8958745,74.7676523 C104.202711,77.8178621 107.776244,83.5431017 107.776244,90.1012396 L104.409057,90.1012396 C104.403429,82.2037105 98.0010843,75.7975202 90.1017952,75.7975202 L90.1017952,75.7956443 C82.2100095,75.7956443 75.8057886,82.1943313 75.7964093,90.0843567 L75.7964093,90.1012396 L75.7945335,90.1012396 L75.7945335,90.1031158 L75.7964093,90.1012396 L75.7964093,90.1218746 L75.7964093,90.1218746 Z" id="Page-1"></path>
        </g>
    </g>
</svg>