<svg width="221" height="32" viewBox="0 0 221 32" fill="none" xmlns="http://www.w3.org/2000/svg">
<path fill-rule="evenodd" clip-rule="evenodd" d="M22.7731 18.9461C23.0413 18.9391 23.0413 18.9391 22.7731 18.9461V18.9461ZM22.5254 18.9489C22.6056 18.9489 22.6858 18.948 22.766 18.9461C22.6858 18.948 22.6056 18.9489 22.5254 18.9489ZM22.5254 2.52824C18.6893 2.52824 15.5786 5.63848 15.5786 9.47469H14.7359C14.7359 5.17326 18.2241 1.68549 22.5254 1.68549C26.8263 1.68549 30.3141 5.17326 30.3141 9.47469H29.4723C29.4723 5.63848 26.3607 2.52824 22.5254 2.52824ZM22.5254 4.21327C19.6197 4.21327 17.2641 6.56939 17.2641 9.47469H16.4209C16.4209 6.10417 19.1554 3.37052 22.5254 3.37052C25.8954 3.37052 28.6291 6.10417 28.6291 9.47469H27.7873C27.7868 6.56939 25.4312 4.21374 22.5254 4.21374V4.21327ZM18.9486 9.47469C18.9486 7.49984 20.5502 5.89829 22.5254 5.89829V5.89876C24.5003 5.89876 26.1009 7.49984 26.1009 9.47469H26.9441C26.9441 7.03462 24.965 5.05601 22.5254 5.05601C20.0859 5.05601 18.1059 7.03462 18.1059 9.47469H18.9486ZM9.47877 18.9489H9.47455H9.47877ZM9.47455 13.0506C9.39389 13.0506 9.31369 13.0516 9.2335 13.0534L9.47455 13.0506ZM13.6319 6.20125C13.7107 5.98552 13.7107 5.98552 13.6319 6.20125V6.20125ZM13.0542 9.22613C13.0607 8.95835 13.0607 8.95835 13.0542 9.22613V9.22613ZM13.0509 9.47469C13.0509 7.49984 11.4494 5.89829 9.47455 5.89829C7.49973 5.89829 5.89867 7.49984 5.89867 9.47469H5.05594C5.05594 7.03462 7.03451 5.05601 9.47455 5.05601C11.1136 5.05601 12.5454 5.94894 13.3074 7.27567L13.307 7.28036C13.3909 6.92394 13.4959 6.57408 13.6198 6.23455C12.656 5.00443 11.1577 4.21327 9.47455 4.21327C6.56977 4.21327 4.21367 6.56939 4.21274 9.47469H3.37047C3.37047 6.10417 6.10455 3.37052 9.47455 3.37052C11.2623 3.37052 12.8703 4.13964 13.9865 5.3646C14.1155 5.09728 14.2571 4.837 14.4095 4.58422L14.4081 4.58563C13.1498 3.31518 11.4034 2.52824 9.47455 2.52824C5.63886 2.52824 2.5282 5.63848 2.5282 9.47469H1.68547C1.68547 5.17326 5.17318 1.68549 9.47455 1.68549C11.576 1.68549 13.4842 2.51886 14.885 3.87185C15.0525 3.64487 15.2293 3.42492 15.4154 3.21341C13.8678 1.74458 11.7762 0.842747 9.47455 0.842747C4.70796 0.842747 0.843204 4.70803 0.842735 9.47469H0C0 4.24281 4.24275 0 9.47455 0C11.9924 0 14.3021 1.00407 15.9993 2.60703C17.6984 0.991412 19.9963 0.000468974 22.5254 0.000468974C27.7572 0.000468974 31.9995 4.24281 31.9995 9.47469H31.1573C31.1573 4.7085 27.292 0.842747 22.5254 0.842747C17.7589 0.842747 13.8927 4.70803 13.8927 9.47469H13.0509C13.0509 9.39403 13.0514 9.31336 13.0532 9.23364C13.0514 9.31336 13.0509 9.39403 13.0509 9.47469ZM22.5203 13.0511C22.2942 13.0511 22.2942 13.0511 22.5203 13.0511V13.0511ZM9.68934 18.9466L9.71513 18.9461H9.71888L9.72217 18.9456C9.96931 18.9395 9.85348 18.9433 9.68934 18.9466ZM9.47877 18.9489C9.5463 18.9489 9.6143 18.948 9.68137 18.9466C9.6143 18.948 9.5463 18.9489 9.47877 18.9489ZM13.0509 22.5234C13.0495 20.5495 11.4484 18.9489 9.47455 18.9489C7.49973 18.9489 5.89867 20.55 5.89867 22.5248H5.05594C5.05594 20.0852 7.03451 18.1066 9.47455 18.1062C14.2411 18.1062 18.1059 14.2409 18.1059 9.47469H18.9486C18.9486 11.4477 20.5483 13.0483 22.5203 13.0511H22.5254C24.5003 13.0511 26.1009 11.4495 26.1009 9.47469H26.9441C26.9441 11.9148 24.965 13.8938 22.5254 13.8938C17.7589 13.8938 13.8941 17.7587 13.8927 22.5253H13.0509C13.0509 22.4437 13.0514 22.3621 13.0542 22.281C13.0514 22.3616 13.0509 22.4418 13.0509 22.5234ZM22.5254 15.5784C18.6893 15.5784 15.5786 18.6891 15.5786 22.5253H14.7359C14.7359 18.2239 18.2241 14.7361 22.5254 14.7361V14.7356C25.4312 14.7356 27.7868 12.38 27.7873 9.47469H28.6291C28.6291 12.8457 25.8954 15.5784 22.5254 15.5784ZM22.5254 17.2639C19.6197 17.2639 17.2641 19.62 17.2641 22.5253H16.4209C16.4209 19.1548 19.1554 16.4211 22.5254 16.4211C26.3607 16.4211 29.4723 13.3104 29.4723 9.47469H30.3141C30.3141 13.7761 26.8263 17.2634 22.5254 17.2639ZM9.47455 17.2634C6.56977 17.2634 4.21367 19.6195 4.21367 22.5248H3.37094C3.37094 19.1543 6.10455 16.4211 9.47455 16.4211C13.3102 16.4211 16.4209 13.3104 16.4209 9.47469H17.2641C17.2632 13.7757 13.7759 17.2634 9.47455 17.2634ZM9.47455 15.5784C5.63933 15.5784 2.5282 18.6891 2.5282 22.5248H1.68547C1.68594 18.2239 5.17318 14.7356 9.47455 14.7356C12.3798 14.7356 14.7359 12.38 14.7359 9.47469H15.5786C15.5786 12.8452 12.845 15.5784 9.47455 15.5784ZM5.89867 22.5253C5.89867 24.4997 7.49973 26.1012 9.47455 26.1012C11.4494 26.1012 13.0509 24.4997 13.0509 22.5253H13.8936C13.8927 24.9649 11.9146 26.9435 9.47455 26.9435V26.944C7.03451 26.944 5.05594 24.9649 5.05594 22.5253H5.89867ZM9.47455 27.7867C12.3798 27.7867 14.7359 25.4301 14.7359 22.5253H15.5786C15.5786 25.8958 12.845 28.6285 9.47455 28.6285V28.629C6.10455 28.629 3.37094 25.8958 3.37094 22.5253H4.21367C4.21367 25.4311 6.56977 27.7867 9.47455 27.7867ZM9.47455 29.4718C13.3107 29.4718 16.4209 26.3606 16.4209 22.5253H17.2641C17.2641 26.8267 13.7759 30.314 9.47455 30.314C5.17412 30.314 1.68594 26.8267 1.68547 22.5253H2.5282C2.5282 26.3615 5.63933 29.4718 9.47455 29.4718ZM9.2335 13.0534C9.31369 13.0516 9.39389 13.0506 9.47455 13.0506L9.2335 13.0534ZM9.22694 13.0534C8.95822 13.0609 8.95822 13.0609 9.22694 13.0534V13.0534ZM18.0121 13.5838V13.5848V13.5852C18.1415 13.725 18.2747 13.8591 18.4149 13.9872L18.4262 13.9811C18.1561 14.1114 17.8925 14.254 17.6374 14.4078L17.5919 14.36C17.7439 14.1086 17.8841 13.8498 18.0121 13.5838ZM18.3798 12.7148V12.7144C18.5022 12.3758 18.6072 12.0287 18.6921 11.6737C19.0823 12.3523 19.6474 12.9179 20.3255 13.3076C19.9274 13.4024 19.5395 13.5219 19.163 13.6654C19.2033 13.65 19.2446 13.635 19.2849 13.62C18.9472 13.3559 18.6438 13.0516 18.3798 12.7144V12.7148ZM12.7142 18.38L12.7198 18.3843C13.0392 18.6347 13.3285 18.9208 13.5813 19.2373L13.5827 19.2378L13.6198 19.287C13.4964 19.6247 13.3923 19.9713 13.3074 20.3258C12.9177 19.6472 12.3521 19.0821 11.6731 18.6919C12.0285 18.6075 12.3765 18.5034 12.7142 18.38ZM13.5893 18.0171L13.5846 18.0124C13.8519 17.8839 14.1108 17.7432 14.3631 17.5908V17.5912L14.4011 17.6287L14.4095 17.6372C14.2571 17.889 14.1164 18.1488 13.9879 18.4152L13.9748 18.4016L13.9691 18.3951L13.9663 18.3922C13.8458 18.2623 13.7201 18.1371 13.5893 18.0171ZM18.9491 22.5305C18.9514 24.5025 20.5525 26.1012 22.5254 26.1012C24.5003 26.1012 26.1009 24.4997 26.1023 22.5253H26.9441C26.9441 24.9649 24.965 26.944 22.5254 26.944C20.8864 26.944 19.4575 26.0525 18.693 24.7271L18.6921 24.7243V24.7234C18.6068 25.0789 18.5022 25.4264 18.3793 25.764L18.3798 25.7659C19.343 26.9956 20.8423 27.7867 22.5254 27.7867C25.4312 27.7867 27.7873 25.4311 27.7873 22.5253H28.6291C28.6291 25.8963 25.8964 28.629 22.5254 28.629C20.7382 28.629 19.1297 27.8604 18.0121 26.6354V26.6345C17.8831 26.9008 17.7424 27.1611 17.59 27.413L17.5905 27.4139C18.8501 28.6848 20.5966 29.4722 22.5254 29.4722V29.4718C26.3607 29.4718 29.4723 26.3615 29.4723 22.5253H30.3141C30.3141 26.8267 26.8273 30.314 22.5254 30.314V30.315C20.4306 30.315 18.528 29.4863 17.1281 28.1399L17.1272 28.1408L17.1131 28.1272C16.9461 28.3542 16.7689 28.5741 16.5832 28.7856L16.5991 28.8007C18.1453 30.2615 20.2313 31.1573 22.5254 31.1573C27.292 31.1573 31.1573 27.2915 31.1573 22.5253H32C31.9995 27.7567 27.7572 32 22.5254 32C20.0057 32 17.7143 31.0152 16.0176 29.4103L16.0087 29.4019L16.0002 29.3934L15.9988 29.392C14.2993 31.0081 12.0032 31.9995 9.47455 31.9995V32C4.24462 32 0.00328277 27.76 0 22.5305V22.5253C0.00187587 19.998 0.993273 17.701 2.60746 16.0014L2.60652 16L2.60183 15.9953C0.98999 14.2967 0 12.0015 0 9.47469H0.842735C0.843204 11.7755 1.74409 13.8662 3.21196 15.4143L3.21337 15.4157L3.21477 15.4166C3.42628 15.2304 3.64575 15.0536 3.8732 14.8862L3.87273 14.8852L3.86289 14.8759L3.82771 14.8393V14.8388C2.501 13.4417 1.68547 11.5532 1.68547 9.47469H2.5282C2.5282 11.404 3.3156 13.1496 4.58603 14.4088L4.58697 14.4097C4.83974 14.2573 5.09908 14.1166 5.36546 13.9876L5.36405 13.9862V13.9867L5.30449 13.9309L5.30308 13.9299C4.11378 12.8161 3.37047 11.2319 3.37047 9.47469H4.21274C4.21367 11.1569 5.00388 12.6553 6.23352 13.6185L6.23633 13.62C6.58477 13.4929 6.944 13.3855 7.31027 13.2992L7.27556 13.3076C5.94885 12.5455 5.05594 11.1142 5.05594 9.47469H5.89867C5.89867 11.4495 7.49973 13.0506 9.47455 13.0506C11.4494 13.0506 13.0509 11.4495 13.0509 9.47469H13.8927C13.8927 11.9143 11.9146 13.8929 9.47455 13.8934V13.8938H9.47268C4.70703 13.8948 0.843204 17.7596 0.843204 22.5248L0.782707 22.5253H0.843204C0.843204 27.2915 4.70796 31.1573 9.47455 31.1573C14.2411 31.1573 18.1059 27.2915 18.1059 22.5253H18.1209H18.1059C18.1059 20.0857 20.0859 18.1066 22.5254 18.1066C27.292 18.1066 31.1573 14.2409 31.1573 9.47469H31.9995C31.9995 12.0034 31.0091 14.3009 29.3935 16C31.0091 17.6986 32 19.9971 32 22.5253H31.1573C31.1573 20.2231 30.2554 18.132 28.7862 16.5843C28.5756 16.7705 28.3547 16.9473 28.1273 17.1148C29.4816 18.516 30.3141 20.4238 30.3141 22.5253H29.4723C29.4723 20.5955 28.6853 18.8504 27.414 17.5912L27.4158 17.5898C27.1631 17.7432 26.9028 17.8839 26.6359 18.0133C27.8604 19.1295 28.6291 20.7376 28.6291 22.5253H27.7873C27.7873 20.8422 26.9956 19.3433 25.7655 18.3805L25.7684 18.3791C25.4288 18.5024 25.0799 18.6075 24.7235 18.6919H24.724C26.0507 19.4545 26.9441 20.8858 26.9441 22.5253H26.1023C26.1009 20.5509 24.5003 18.9494 22.5254 18.9494V18.9489C20.5525 18.9489 18.9514 20.5486 18.9491 22.5211V22.5253H18.9486V22.5258L18.9491 22.5253V22.5305Z" fill="#181A33"/>
<path d="M48.54 18.5H45.76V23.5H43.56V9.14H48.54C50.18 9.14 51.4733 9.54667 52.42 10.36C53.3667 11.16 53.84 12.3 53.84 13.78C53.84 15.2733 53.36 16.4333 52.4 17.26C51.4533 18.0867 50.1667 18.5 48.54 18.5ZM48.52 11H45.76V16.64H48.52C49.4933 16.64 50.2533 16.3933 50.8 15.9C51.36 15.3933 51.64 14.6933 51.64 13.8C51.64 12.92 51.36 12.2333 50.8 11.74C50.2533 11.2467 49.4933 11 48.52 11ZM62.1052 23.5V21.86C61.4252 23.0867 60.2918 23.7 58.7052 23.7C57.5985 23.7 56.7118 23.4133 56.0452 22.84C55.3918 22.2533 55.0652 21.4733 55.0652 20.5C55.0652 18.3933 56.6718 17.34 59.8852 17.34C60.5118 17.34 61.1718 17.38 61.8652 17.46V16.68C61.8652 15.92 61.6718 15.3333 61.2852 14.92C60.8985 14.5067 60.3518 14.3 59.6452 14.3C58.9118 14.3 58.3252 14.5067 57.8852 14.92C57.4585 15.3333 57.2318 15.9133 57.2052 16.66H55.3652C55.4185 15.4733 55.8318 14.52 56.6052 13.8C57.3918 13.0667 58.4052 12.7 59.6452 12.7C60.9518 12.7 61.9652 13.0533 62.6852 13.76C63.4185 14.4533 63.7852 15.4333 63.7852 16.7V23.5H62.1052ZM56.9852 20.44C56.9852 20.9867 57.1718 21.4267 57.5452 21.76C57.9318 22.0933 58.4518 22.26 59.1052 22.26C59.9452 22.26 60.6118 22.02 61.1052 21.54C61.6118 21.0467 61.8652 20.3933 61.8652 19.58V18.72C61.2385 18.64 60.6185 18.6 60.0052 18.6C57.9918 18.6 56.9852 19.2133 56.9852 20.44ZM68.5259 23.5H66.4859V9.14H68.5259V23.5ZM75.5697 27.58C74.183 27.58 73.063 27.2333 72.2097 26.54C71.3697 25.8467 70.923 24.9 70.8697 23.7H72.8297C72.883 24.4333 73.143 24.9933 73.6097 25.38C74.0764 25.78 74.723 25.98 75.5497 25.98C76.4564 25.98 77.143 25.74 77.6097 25.26C78.0897 24.78 78.3297 24.0867 78.3297 23.18V21.26C78.0364 21.9 77.603 22.4 77.0297 22.76C76.4564 23.1067 75.8097 23.28 75.0897 23.28C73.7697 23.28 72.683 22.7867 71.8297 21.8C70.9897 20.8133 70.5697 19.54 70.5697 17.98C70.5697 16.4067 70.9764 15.1333 71.7897 14.16C72.6164 13.1867 73.6964 12.7 75.0297 12.7C76.5764 12.7 77.723 13.3933 78.4697 14.78V12.9H80.3497V23.14C80.3497 24.5267 79.923 25.6133 79.0697 26.4C78.2297 27.1867 77.063 27.58 75.5697 27.58ZM73.3697 15.4C72.863 16.0267 72.6097 16.8867 72.6097 17.98C72.6097 19.0733 72.863 19.94 73.3697 20.58C73.8764 21.2067 74.5697 21.52 75.4497 21.52C76.3164 21.52 77.0097 21.2067 77.5297 20.58C78.063 19.94 78.3297 19.0933 78.3297 18.04C78.3297 16.9467 78.063 16.0733 77.5297 15.42C77.0097 14.7667 76.3164 14.44 75.4497 14.44C74.583 14.44 73.8897 14.76 73.3697 15.4ZM89.5661 23.5V21.86C88.8861 23.0867 87.7528 23.7 86.1661 23.7C85.0594 23.7 84.1728 23.4133 83.5061 22.84C82.8528 22.2533 82.5261 21.4733 82.5261 20.5C82.5261 18.3933 84.1328 17.34 87.3461 17.34C87.9728 17.34 88.6328 17.38 89.3261 17.46V16.68C89.3261 15.92 89.1328 15.3333 88.7461 14.92C88.3594 14.5067 87.8128 14.3 87.1061 14.3C86.3728 14.3 85.7861 14.5067 85.3461 14.92C84.9194 15.3333 84.6928 15.9133 84.6661 16.66H82.8261C82.8794 15.4733 83.2928 14.52 84.0661 13.8C84.8528 13.0667 85.8661 12.7 87.1061 12.7C88.4128 12.7 89.4261 13.0533 90.1461 13.76C90.8794 14.4533 91.2461 15.4333 91.2461 16.7V23.5H89.5661ZM84.4461 20.44C84.4461 20.9867 84.6328 21.4267 85.0061 21.76C85.3928 22.0933 85.9128 22.26 86.5661 22.26C87.4061 22.26 88.0728 22.02 88.5661 21.54C89.0728 21.0467 89.3261 20.3933 89.3261 19.58V18.72C88.6994 18.64 88.0794 18.6 87.4661 18.6C85.4528 18.6 84.4461 19.2133 84.4461 20.44ZM95.9669 23.5H93.9469V9.14H95.9669V17.64L100.507 12.9H102.887L97.9869 18.04L103.347 23.5H100.747L95.9669 18.48V23.5ZM110.894 23.5V21.86C110.214 23.0867 109.081 23.7 107.494 23.7C106.388 23.7 105.501 23.4133 104.834 22.84C104.181 22.2533 103.854 21.4733 103.854 20.5C103.854 18.3933 105.461 17.34 108.674 17.34C109.301 17.34 109.961 17.38 110.654 17.46V16.68C110.654 15.92 110.461 15.3333 110.074 14.92C109.688 14.5067 109.141 14.3 108.434 14.3C107.701 14.3 107.114 14.5067 106.674 14.92C106.248 15.3333 106.021 15.9133 105.994 16.66H104.154C104.208 15.4733 104.621 14.52 105.394 13.8C106.181 13.0667 107.194 12.7 108.434 12.7C109.741 12.7 110.754 13.0533 111.474 13.76C112.208 14.4533 112.574 15.4333 112.574 16.7V23.5H110.894ZM105.774 20.44C105.774 20.9867 105.961 21.4267 106.334 21.76C106.721 22.0933 107.241 22.26 107.894 22.26C108.734 22.26 109.401 22.02 109.894 21.54C110.401 21.0467 110.654 20.3933 110.654 19.58V18.72C110.028 18.64 109.408 18.6 108.794 18.6C106.781 18.6 105.774 19.2133 105.774 20.44ZM117.315 23.5H115.275V9.14H117.315V23.5ZM122.139 23.5H120.119V9.14H122.139V17.64L126.679 12.9H129.059L124.159 18.04L129.519 23.5H126.919L122.139 18.48V23.5ZM137.559 19.14V12.9H139.579V23.5H137.699V21.82C137.419 22.38 136.986 22.8333 136.399 23.18C135.812 23.5267 135.166 23.7 134.459 23.7C133.352 23.7 132.472 23.3667 131.819 22.7C131.166 22.0333 130.839 21.04 130.839 19.72V12.9H132.859V19.32C132.859 20.2 133.059 20.8533 133.459 21.28C133.859 21.7067 134.406 21.92 135.099 21.92C135.792 21.92 136.372 21.66 136.839 21.14C137.319 20.62 137.559 19.9533 137.559 19.14ZM144.424 23.5H142.384V9.14H144.424V23.5ZM153.648 23.5V21.86C152.968 23.0867 151.835 23.7 150.248 23.7C149.141 23.7 148.255 23.4133 147.588 22.84C146.935 22.2533 146.608 21.4733 146.608 20.5C146.608 18.3933 148.215 17.34 151.428 17.34C152.055 17.34 152.715 17.38 153.408 17.46V16.68C153.408 15.92 153.215 15.3333 152.828 14.92C152.441 14.5067 151.895 14.3 151.188 14.3C150.455 14.3 149.868 14.5067 149.428 14.92C149.001 15.3333 148.775 15.9133 148.748 16.66H146.908C146.961 15.4733 147.375 14.52 148.148 13.8C148.935 13.0667 149.948 12.7 151.188 12.7C152.495 12.7 153.508 13.0533 154.228 13.76C154.961 14.4533 155.328 15.4333 155.328 16.7V23.5H153.648ZM148.528 20.44C148.528 20.9867 148.715 21.4267 149.088 21.76C149.475 22.0933 149.995 22.26 150.648 22.26C151.488 22.26 152.155 22.02 152.648 21.54C153.155 21.0467 153.408 20.3933 153.408 19.58V18.72C152.781 18.64 152.161 18.6 151.548 18.6C149.535 18.6 148.528 19.2133 148.528 20.44ZM164.449 23.5V21.86C163.769 23.0867 162.636 23.7 161.049 23.7C159.942 23.7 159.056 23.4133 158.389 22.84C157.736 22.2533 157.409 21.4733 157.409 20.5C157.409 18.3933 159.016 17.34 162.229 17.34C162.856 17.34 163.516 17.38 164.209 17.46V16.68C164.209 15.92 164.016 15.3333 163.629 14.92C163.242 14.5067 162.696 14.3 161.989 14.3C161.256 14.3 160.669 14.5067 160.229 14.92C159.802 15.3333 159.576 15.9133 159.549 16.66H157.709C157.762 15.4733 158.176 14.52 158.949 13.8C159.736 13.0667 160.749 12.7 161.989 12.7C163.296 12.7 164.309 13.0533 165.029 13.76C165.762 14.4533 166.129 15.4333 166.129 16.7V23.5H164.449ZM159.329 20.44C159.329 20.9867 159.516 21.4267 159.889 21.76C160.276 22.0933 160.796 22.26 161.449 22.26C162.289 22.26 162.956 22.02 163.449 21.54C163.956 21.0467 164.209 20.3933 164.209 19.58V18.72C163.582 18.64 162.962 18.6 162.349 18.6C160.336 18.6 159.329 19.2133 159.329 20.44ZM174.712 21.54V23.32C174.152 23.5733 173.552 23.7 172.912 23.7C171.885 23.7 171.072 23.42 170.472 22.86C169.885 22.2867 169.592 21.4333 169.592 20.3V14.62H167.252V12.9H169.592V9.76H171.612V12.9H174.812V14.62H171.612V19.84C171.612 21.16 172.205 21.82 173.392 21.82C173.885 21.82 174.325 21.7267 174.712 21.54ZM184.607 22.14C183.62 23.18 182.38 23.7 180.887 23.7C179.394 23.7 178.154 23.18 177.167 22.14C176.18 21.0867 175.687 19.7733 175.687 18.2C175.687 16.6267 176.18 15.32 177.167 14.28C178.154 13.2267 179.394 12.7 180.887 12.7C182.38 12.7 183.62 13.2267 184.607 14.28C185.594 15.32 186.087 16.6267 186.087 18.2C186.087 19.7733 185.594 21.0867 184.607 22.14ZM178.667 20.92C179.254 21.5867 179.994 21.92 180.887 21.92C181.78 21.92 182.52 21.5867 183.107 20.92C183.707 20.24 184.007 19.3333 184.007 18.2C184.007 17.0667 183.707 16.1667 183.107 15.5C182.52 14.8333 181.78 14.5 180.887 14.5C179.994 14.5 179.254 14.8333 178.667 15.5C178.08 16.1667 177.787 17.0667 177.787 18.2C177.787 19.3333 178.08 20.24 178.667 20.92ZM190.166 18.08V23.5H188.146V12.9H190.026V15.14C190.399 14.4067 190.953 13.8267 191.686 13.4C192.433 12.9733 193.239 12.76 194.106 12.76V14.86C192.919 14.7933 191.966 15.0333 191.246 15.58C190.526 16.1133 190.166 16.9467 190.166 18.08ZM197.253 22.06C197.253 22.5133 197.107 22.8867 196.813 23.18C196.533 23.46 196.167 23.6 195.713 23.6C195.26 23.6 194.887 23.46 194.593 23.18C194.313 22.8867 194.173 22.5133 194.173 22.06C194.173 21.5933 194.313 21.2133 194.593 20.92C194.887 20.6267 195.26 20.48 195.713 20.48C196.167 20.48 196.533 20.6267 196.813 20.92C197.107 21.2133 197.253 21.5933 197.253 22.06ZM203.776 23.7C202.242 23.7 201.002 23.1933 200.056 22.18C199.122 21.1533 198.656 19.8067 198.656 18.14C198.656 16.5667 199.129 15.2667 200.076 14.24C201.036 13.2133 202.249 12.7 203.716 12.7C205.302 12.7 206.556 13.2733 207.476 14.42C208.409 15.5533 208.789 16.98 208.616 18.7H200.716C200.796 19.78 201.096 20.62 201.616 21.22C202.149 21.82 202.856 22.12 203.736 22.12C204.482 22.12 205.102 21.9267 205.596 21.54C206.102 21.1533 206.442 20.6133 206.616 19.92H208.616C208.362 21.0933 207.802 22.02 206.936 22.7C206.082 23.3667 205.029 23.7 203.776 23.7ZM203.676 14.22C202.862 14.22 202.196 14.5 201.676 15.06C201.156 15.6067 200.842 16.3733 200.736 17.36H206.476C206.422 16.3867 206.149 15.62 205.656 15.06C205.162 14.5 204.502 14.22 203.676 14.22ZM214.928 23.7C213.395 23.7 212.155 23.1933 211.208 22.18C210.275 21.1533 209.808 19.8067 209.808 18.14C209.808 16.5667 210.281 15.2667 211.228 14.24C212.188 13.2133 213.401 12.7 214.868 12.7C216.455 12.7 217.708 13.2733 218.628 14.42C219.561 15.5533 219.941 16.98 219.768 18.7H211.868C211.948 19.78 212.248 20.62 212.768 21.22C213.301 21.82 214.008 22.12 214.888 22.12C215.635 22.12 216.255 21.9267 216.748 21.54C217.255 21.1533 217.595 20.6133 217.768 19.92H219.768C219.515 21.0933 218.955 22.02 218.088 22.7C217.235 23.3667 216.181 23.7 214.928 23.7ZM214.828 14.22C214.015 14.22 213.348 14.5 212.828 15.06C212.308 15.6067 211.995 16.3733 211.888 17.36H217.628C217.575 16.3867 217.301 15.62 216.808 15.06C216.315 14.5 215.655 14.22 214.828 14.22Z" fill="#181A33"/>
</svg>
