<svg width="32" height="32" viewBox="0 0 32 32" fill="none" xmlns="http://www.w3.org/2000/svg">
  <path fill-rule="evenodd" clip-rule="evenodd" d="M22.7731 18.9461C23.0413 18.9391 23.0413 18.9391 22.7731 18.9461V18.9461ZM22.5254 18.9489C22.6056 18.9489 22.6858 18.948 22.766 18.9461C22.6858 18.948 22.6056 18.9489 22.5254 18.9489ZM22.5254 2.52824C18.6893 2.52824 15.5786 5.63848 15.5786 9.47469H14.7359C14.7359 5.17326 18.2241 1.68549 22.5254 1.68549C26.8263 1.68549 30.3141 5.17326 30.3141 9.47469H29.4723C29.4723 5.63848 26.3607 2.52824 22.5254 2.52824ZM22.5254 4.21327C19.6197 4.21327 17.2641 6.56939 17.2641 9.47469H16.4209C16.4209 6.10417 19.1554 3.37052 22.5254 3.37052C25.8954 3.37052 28.6291 6.10417 28.6291 9.47469H27.7873C27.7868 6.56939 25.4312 4.21374 22.5254 4.21374V4.21327ZM18.9486 9.47469C18.9486 7.49984 20.5502 5.89829 22.5254 5.89829V5.89876C24.5003 5.89876 26.1009 7.49984 26.1009 9.47469H26.9441C26.9441 7.03462 24.965 5.05601 22.5254 5.05601C20.0859 5.05601 18.1059 7.03462 18.1059 9.47469H18.9486ZM9.47877 18.9489H9.47455H9.47877ZM9.47455 13.0506C9.39389 13.0506 9.31369 13.0516 9.2335 13.0534L9.47455 13.0506ZM13.6319 6.20125C13.7107 5.98552 13.7107 5.98552 13.6319 6.20125V6.20125ZM13.0542 9.22613C13.0607 8.95835 13.0607 8.95835 13.0542 9.22613V9.22613ZM13.0509 9.47469C13.0509 7.49984 11.4494 5.89829 9.47455 5.89829C7.49973 5.89829 5.89867 7.49984 5.89867 9.47469H5.05594C5.05594 7.03462 7.03451 5.05601 9.47455 5.05601C11.1136 5.05601 12.5454 5.94894 13.3074 7.27567L13.307 7.28036C13.3909 6.92394 13.4959 6.57408 13.6198 6.23455C12.656 5.00443 11.1577 4.21327 9.47455 4.21327C6.56977 4.21327 4.21367 6.56939 4.21274 9.47469H3.37047C3.37047 6.10417 6.10455 3.37052 9.47455 3.37052C11.2623 3.37052 12.8703 4.13964 13.9865 5.3646C14.1155 5.09728 14.2571 4.837 14.4095 4.58422L14.4081 4.58563C13.1498 3.31518 11.4034 2.52824 9.47455 2.52824C5.63886 2.52824 2.5282 5.63848 2.5282 9.47469H1.68547C1.68547 5.17326 5.17318 1.68549 9.47455 1.68549C11.576 1.68549 13.4842 2.51886 14.885 3.87185C15.0525 3.64487 15.2293 3.42492 15.4154 3.21341C13.8678 1.74458 11.7762 0.842747 9.47455 0.842747C4.70796 0.842747 0.843204 4.70803 0.842735 9.47469H0C0 4.24281 4.24275 0 9.47455 0C11.9924 0 14.3021 1.00407 15.9993 2.60703C17.6984 0.991412 19.9963 0.000468974 22.5254 0.000468974C27.7572 0.000468974 31.9995 4.24281 31.9995 9.47469H31.1573C31.1573 4.7085 27.292 0.842747 22.5254 0.842747C17.7589 0.842747 13.8927 4.70803 13.8927 9.47469H13.0509C13.0509 9.39403 13.0514 9.31336 13.0532 9.23364C13.0514 9.31336 13.0509 9.39403 13.0509 9.47469ZM22.5203 13.0511C22.2942 13.0511 22.2942 13.0511 22.5203 13.0511V13.0511ZM9.68934 18.9466L9.71513 18.9461H9.71888L9.72217 18.9456C9.96931 18.9395 9.85348 18.9433 9.68934 18.9466ZM9.47877 18.9489C9.5463 18.9489 9.6143 18.948 9.68137 18.9466C9.6143 18.948 9.5463 18.9489 9.47877 18.9489ZM13.0509 22.5234C13.0495 20.5495 11.4484 18.9489 9.47455 18.9489C7.49973 18.9489 5.89867 20.55 5.89867 22.5248H5.05594C5.05594 20.0852 7.03451 18.1066 9.47455 18.1062C14.2411 18.1062 18.1059 14.2409 18.1059 9.47469H18.9486C18.9486 11.4477 20.5483 13.0483 22.5203 13.0511H22.5254C24.5003 13.0511 26.1009 11.4495 26.1009 9.47469H26.9441C26.9441 11.9148 24.965 13.8938 22.5254 13.8938C17.7589 13.8938 13.8941 17.7587 13.8927 22.5253H13.0509C13.0509 22.4437 13.0514 22.3621 13.0542 22.281C13.0514 22.3616 13.0509 22.4418 13.0509 22.5234ZM22.5254 15.5784C18.6893 15.5784 15.5786 18.6891 15.5786 22.5253H14.7359C14.7359 18.2239 18.2241 14.7361 22.5254 14.7361V14.7356C25.4312 14.7356 27.7868 12.38 27.7873 9.47469H28.6291C28.6291 12.8457 25.8954 15.5784 22.5254 15.5784ZM22.5254 17.2639C19.6197 17.2639 17.2641 19.62 17.2641 22.5253H16.4209C16.4209 19.1548 19.1554 16.4211 22.5254 16.4211C26.3607 16.4211 29.4723 13.3104 29.4723 9.47469H30.3141C30.3141 13.7761 26.8263 17.2634 22.5254 17.2639ZM9.47455 17.2634C6.56977 17.2634 4.21367 19.6195 4.21367 22.5248H3.37094C3.37094 19.1543 6.10455 16.4211 9.47455 16.4211C13.3102 16.4211 16.4209 13.3104 16.4209 9.47469H17.2641C17.2632 13.7757 13.7759 17.2634 9.47455 17.2634ZM9.47455 15.5784C5.63933 15.5784 2.5282 18.6891 2.5282 22.5248H1.68547C1.68594 18.2239 5.17318 14.7356 9.47455 14.7356C12.3798 14.7356 14.7359 12.38 14.7359 9.47469H15.5786C15.5786 12.8452 12.845 15.5784 9.47455 15.5784ZM5.89867 22.5253C5.89867 24.4997 7.49973 26.1012 9.47455 26.1012C11.4494 26.1012 13.0509 24.4997 13.0509 22.5253H13.8936C13.8927 24.9649 11.9146 26.9435 9.47455 26.9435V26.944C7.03451 26.944 5.05594 24.9649 5.05594 22.5253H5.89867ZM9.47455 27.7867C12.3798 27.7867 14.7359 25.4301 14.7359 22.5253H15.5786C15.5786 25.8958 12.845 28.6285 9.47455 28.6285V28.629C6.10455 28.629 3.37094 25.8958 3.37094 22.5253H4.21367C4.21367 25.4311 6.56977 27.7867 9.47455 27.7867ZM9.47455 29.4718C13.3107 29.4718 16.4209 26.3606 16.4209 22.5253H17.2641C17.2641 26.8267 13.7759 30.314 9.47455 30.314C5.17412 30.314 1.68594 26.8267 1.68547 22.5253H2.5282C2.5282 26.3615 5.63933 29.4718 9.47455 29.4718ZM9.2335 13.0534C9.31369 13.0516 9.39389 13.0506 9.47455 13.0506L9.2335 13.0534ZM9.22694 13.0534C8.95822 13.0609 8.95822 13.0609 9.22694 13.0534V13.0534ZM18.0121 13.5838V13.5848V13.5852C18.1415 13.725 18.2747 13.8591 18.4149 13.9872L18.4262 13.9811C18.1561 14.1114 17.8925 14.254 17.6374 14.4078L17.5919 14.36C17.7439 14.1086 17.8841 13.8498 18.0121 13.5838ZM18.3798 12.7148V12.7144C18.5022 12.3758 18.6072 12.0287 18.6921 11.6737C19.0823 12.3523 19.6474 12.9179 20.3255 13.3076C19.9274 13.4024 19.5395 13.5219 19.163 13.6654C19.2033 13.65 19.2446 13.635 19.2849 13.62C18.9472 13.3559 18.6438 13.0516 18.3798 12.7144V12.7148ZM12.7142 18.38L12.7198 18.3843C13.0392 18.6347 13.3285 18.9208 13.5813 19.2373L13.5827 19.2378L13.6198 19.287C13.4964 19.6247 13.3923 19.9713 13.3074 20.3258C12.9177 19.6472 12.3521 19.0821 11.6731 18.6919C12.0285 18.6075 12.3765 18.5034 12.7142 18.38ZM13.5893 18.0171L13.5846 18.0124C13.8519 17.8839 14.1108 17.7432 14.3631 17.5908V17.5912L14.4011 17.6287L14.4095 17.6372C14.2571 17.889 14.1164 18.1488 13.9879 18.4152L13.9748 18.4016L13.9691 18.3951L13.9663 18.3922C13.8458 18.2623 13.7201 18.1371 13.5893 18.0171ZM18.9491 22.5305C18.9514 24.5025 20.5525 26.1012 22.5254 26.1012C24.5003 26.1012 26.1009 24.4997 26.1023 22.5253H26.9441C26.9441 24.9649 24.965 26.944 22.5254 26.944C20.8864 26.944 19.4575 26.0525 18.693 24.7271L18.6921 24.7243V24.7234C18.6068 25.0789 18.5022 25.4264 18.3793 25.764L18.3798 25.7659C19.343 26.9956 20.8423 27.7867 22.5254 27.7867C25.4312 27.7867 27.7873 25.4311 27.7873 22.5253H28.6291C28.6291 25.8963 25.8964 28.629 22.5254 28.629C20.7382 28.629 19.1297 27.8604 18.0121 26.6354V26.6345C17.8831 26.9008 17.7424 27.1611 17.59 27.413L17.5905 27.4139C18.8501 28.6848 20.5966 29.4722 22.5254 29.4722V29.4718C26.3607 29.4718 29.4723 26.3615 29.4723 22.5253H30.3141C30.3141 26.8267 26.8273 30.314 22.5254 30.314V30.315C20.4306 30.315 18.528 29.4863 17.1281 28.1399L17.1272 28.1408L17.1131 28.1272C16.9461 28.3542 16.7689 28.5741 16.5832 28.7856L16.5991 28.8007C18.1453 30.2615 20.2313 31.1573 22.5254 31.1573C27.292 31.1573 31.1573 27.2915 31.1573 22.5253H32C31.9995 27.7567 27.7572 32 22.5254 32C20.0057 32 17.7143 31.0152 16.0176 29.4103L16.0087 29.4019L16.0002 29.3934L15.9988 29.392C14.2993 31.0081 12.0032 31.9995 9.47455 31.9995V32C4.24462 32 0.00328277 27.76 0 22.5305V22.5253C0.00187587 19.998 0.993273 17.701 2.60746 16.0014L2.60652 16L2.60183 15.9953C0.98999 14.2967 0 12.0015 0 9.47469H0.842735C0.843204 11.7755 1.74409 13.8662 3.21196 15.4143L3.21337 15.4157L3.21477 15.4166C3.42628 15.2304 3.64575 15.0536 3.8732 14.8862L3.87273 14.8852L3.86289 14.8759L3.82771 14.8393V14.8388C2.501 13.4417 1.68547 11.5532 1.68547 9.47469H2.5282C2.5282 11.404 3.3156 13.1496 4.58603 14.4088L4.58697 14.4097C4.83974 14.2573 5.09908 14.1166 5.36546 13.9876L5.36405 13.9862V13.9867L5.30449 13.9309L5.30308 13.9299C4.11378 12.8161 3.37047 11.2319 3.37047 9.47469H4.21274C4.21367 11.1569 5.00388 12.6553 6.23352 13.6185L6.23633 13.62C6.58477 13.4929 6.944 13.3855 7.31027 13.2992L7.27556 13.3076C5.94885 12.5455 5.05594 11.1142 5.05594 9.47469H5.89867C5.89867 11.4495 7.49973 13.0506 9.47455 13.0506C11.4494 13.0506 13.0509 11.4495 13.0509 9.47469H13.8927C13.8927 11.9143 11.9146 13.8929 9.47455 13.8934V13.8938H9.47268C4.70703 13.8948 0.843204 17.7596 0.843204 22.5248L0.782707 22.5253H0.843204C0.843204 27.2915 4.70796 31.1573 9.47455 31.1573C14.2411 31.1573 18.1059 27.2915 18.1059 22.5253H18.1209H18.1059C18.1059 20.0857 20.0859 18.1066 22.5254 18.1066C27.292 18.1066 31.1573 14.2409 31.1573 9.47469H31.9995C31.9995 12.0034 31.0091 14.3009 29.3935 16C31.0091 17.6986 32 19.9971 32 22.5253H31.1573C31.1573 20.2231 30.2554 18.132 28.7862 16.5843C28.5756 16.7705 28.3547 16.9473 28.1273 17.1148C29.4816 18.516 30.3141 20.4238 30.3141 22.5253H29.4723C29.4723 20.5955 28.6853 18.8504 27.414 17.5912L27.4158 17.5898C27.1631 17.7432 26.9028 17.8839 26.6359 18.0133C27.8604 19.1295 28.6291 20.7376 28.6291 22.5253H27.7873C27.7873 20.8422 26.9956 19.3433 25.7655 18.3805L25.7684 18.3791C25.4288 18.5024 25.0799 18.6075 24.7235 18.6919H24.724C26.0507 19.4545 26.9441 20.8858 26.9441 22.5253H26.1023C26.1009 20.5509 24.5003 18.9494 22.5254 18.9494V18.9489C20.5525 18.9489 18.9514 20.5486 18.9491 22.5211V22.5253H18.9486V22.5258L18.9491 22.5253V22.5305Z" fill="#181A33"/>
</svg>
